# Blender 4.0.1
# www.blender.org
mtllib thing.mtl
g Cube_Cube
v 1.000000 1.000000 -1.000000 1.0000 1.0000 1.0000
v 1.000000 -1.000000 -1.000000 1.0000 1.0000 1.0000
v 1.000000 1.000000 1.000000 1.0000 1.0000 1.0000
v 1.000000 -1.000000 1.000000 1.0000 1.0000 1.0000
v -1.000000 1.000000 -1.000000 1.0000 1.0000 1.0000
v -1.000000 -1.000000 -1.000000 1.0000 1.0000 1.0000
v -1.000000 1.000000 1.000000 1.0000 1.0000 1.0000
v -1.000000 -1.000000 1.000000 1.0000 1.0000 1.0000
vn -0.0000 1.0000 -0.0000
vn -0.0000 -0.0000 1.0000
vn -1.0000 -0.0000 -0.0000
vn -0.0000 -1.0000 -0.0000
vn 1.0000 -0.0000 -0.0000
vn -0.0000 -0.0000 -1.0000
vt 0.625000 0.500000
vt 0.875000 0.500000
vt 0.875000 0.750000
vt 0.625000 0.750000
vt 0.375000 0.750000
vt 0.625000 1.000000
vt 0.375000 1.000000
vt 0.375000 0.000000
vt 0.625000 0.000000
vt 0.625000 0.250000
vt 0.375000 0.250000
vt 0.125000 0.500000
vt 0.375000 0.500000
vt 0.125000 0.750000
s 0
g off
g Cube_Material
usemtl Material
f 1/1/1 5/2/1 7/3/1 3/4/1
f 4/5/2 3/4/2 7/6/2 8/7/2
f 8/8/3 7/9/3 5/10/3 6/11/3
f 6/12/4 2/13/4 4/5/4 8/14/4
f 2/13/5 1/1/5 3/4/5 4/5/5
f 6/11/6 5/10/6 1/1/6 2/13/6
g Cube.001_Cube.001
v 1.000000 -0.867056 0.555139
v 3.293402 -0.867056 0.555139
v 1.000000 0.087056 0.555139
v 3.293402 0.087056 0.555139
v 1.000000 -0.867056 -0.458033
v 3.293402 -0.867056 -0.458033
v 1.000000 0.087056 -0.458033
v 3.293402 0.087056 -0.458033
vn -0.0000 -0.0000 1.0000
vn -0.0000 1.0000 -0.0000
vn -0.0000 -0.0000 -1.0000
vn -0.0000 -1.0000 -0.0000
vn -1.0000 -0.0000 -0.0000
vn 1.0000 -0.0000 -0.0000
vt 0.375000 0.000000
vt 0.625000 0.000000
vt 0.625000 0.250000
vt 0.375000 0.250000
vt 0.625000 0.500000
vt 0.375000 0.500000
vt 0.625000 0.750000
vt 0.375000 0.750000
vt 0.625000 1.000000
vt 0.375000 1.000000
vt 0.125000 0.500000
vt 0.125000 0.750000
vt 0.875000 0.500000
vt 0.875000 0.750000
s 0
g off
f 9/15/7 10/16/7 12/17/7 11/18/7
f 11/18/8 12/17/8 16/19/8 15/20/8
f 15/20/9 16/19/9 14/21/9 13/22/9
f 13/22/10 14/21/10 10/23/10 9/24/10
f 11/25/11 15/20/11 13/22/11 9/26/11
f 16/19/12 12/27/12 10/28/12 14/21/12
g Cube.002_Cube.002
v 4.422356 1.545800 0.555138
v 4.422356 1.545800 -0.989412
v 3.289167 1.545800 0.555138
v 3.289167 1.545800 -0.989412
v 4.422356 -1.041716 0.555138
v 4.422356 -1.041716 -0.989412
v 3.289167 -1.041716 0.555138
v 3.289167 -1.041716 -0.989412
vn -0.0000 1.0000 -0.0000
vn -1.0000 -0.0000 -0.0000
vn -0.0000 -1.0000 -0.0000
vn 1.0000 -0.0000 -0.0000
vn -0.0000 -0.0000 1.0000
vn -0.0000 -0.0000 -1.0000
vt 0.375000 0.000000
vt 0.625000 0.000000
vt 0.625000 0.250000
vt 0.375000 0.250000
vt 0.625000 0.500000
vt 0.375000 0.500000
vt 0.625000 0.750000
vt 0.375000 0.750000
vt 0.625000 1.000000
vt 0.375000 1.000000
vt 0.125000 0.500000
vt 0.125000 0.750000
vt 0.875000 0.500000
vt 0.875000 0.750000
s 0
g off
f 17/29/13 18/30/13 20/31/13 19/32/13
f 19/32/14 20/31/14 24/33/14 23/34/14
f 23/34/15 24/33/15 22/35/15 21/36/15
f 21/36/16 22/35/16 18/37/16 17/38/16
f 19/39/17 23/34/17 21/36/17 17/40/17
f 24/33/18 20/41/18 18/42/18 22/35/18
